<svg id="visual" viewBox="0 0 900 300" width="100%" height="100%" xmlns="http://www.w3.org/2000/svg" xmlns:xlink="http://www.w3.org/1999/xlink" version="1.1"><path d="M0 141L15 136.5C30 132 60 123 90 131.8C120 140.7 150 167.3 180 181.2C210 195 240 196 270 183.3C300 170.7 330 144.3 360 139.3C390 134.3 420 150.7 450 151C480 151.3 510 135.7 540 143.5C570 151.3 600 182.7 630 197C660 211.3 690 208.7 720 207.3C750 206 780 206 810 193.2C840 180.3 870 154.7 885 141.8L900 129L900 401L885 401C870 401 840 401 810 401C780 401 750 401 720 401C690 401 660 401 630 401C600 401 570 401 540 401C510 401 480 401 450 401C420 401 390 401 360 401C330 401 300 401 270 401C240 401 210 401 180 401C150 401 120 401 90 401C60 401 30 401 15 401L0 401Z" fill="#7ab5b8"></path><path d="M0 165L15 166.3C30 167.7 60 170.3 90 177.3C120 184.3 150 195.7 180 201C210 206.3 240 205.7 270 196.2C300 186.7 330 168.3 360 172C390 175.7 420 201.3 450 215C480 228.7 510 230.3 540 222.2C570 214 600 196 630 182.7C660 169.3 690 160.7 720 170.2C750 179.7 780 207.3 810 211.7C840 216 870 197 885 187.5L900 178L900 401L885 401C870 401 840 401 810 401C780 401 750 401 720 401C690 401 660 401 630 401C600 401 570 401 540 401C510 401 480 401 450 401C420 401 390 401 360 401C330 401 300 401 270 401C240 401 210 401 180 401C150 401 120 401 90 401C60 401 30 401 15 401L0 401Z" fill="#77acc4"></path><path d="M0 204L15 200.7C30 197.3 60 190.7 90 202.2C120 213.7 150 243.3 180 255.8C210 268.3 240 263.7 270 250.8C300 238 330 217 360 216.5C390 216 420 236 450 244.5C480 253 510 250 540 252.8C570 255.7 600 264.3 630 267.2C660 270 690 267 720 257.2C750 247.3 780 230.7 810 220.5C840 210.3 870 206.7 885 204.8L900 203L900 401L885 401C870 401 840 401 810 401C780 401 750 401 720 401C690 401 660 401 630 401C600 401 570 401 540 401C510 401 480 401 450 401C420 401 390 401 360 401C330 401 300 401 270 401C240 401 210 401 180 401C150 401 120 401 90 401C60 401 30 401 15 401L0 401Z" fill="#8a9ec5"></path><path d="M0 305L15 293.8C30 282.7 60 260.3 90 254.2C120 248 150 258 180 264.7C210 271.3 240 274.7 270 274.8C300 275 330 272 360 274.3C390 276.7 420 284.3 450 286.8C480 289.3 510 286.7 540 287.7C570 288.7 600 293.3 630 285C660 276.7 690 255.3 720 246C750 236.7 780 239.3 810 247.8C840 256.3 870 270.7 885 277.8L900 285L900 401L885 401C870 401 840 401 810 401C780 401 750 401 720 401C690 401 660 401 630 401C600 401 570 401 540 401C510 401 480 401 450 401C420 401 390 401 360 401C330 401 300 401 270 401C240 401 210 401 180 401C150 401 120 401 90 401C60 401 30 401 15 401L0 401Z" fill="#a48fb7"></path><path d="M0 310L15 311.8C30 313.7 60 317.3 90 314.8C120 312.3 150 303.7 180 298.8C210 294 240 293 270 299.7C300 306.3 330 320.7 360 324.2C390 327.7 420 320.3 450 318.2C480 316 510 319 540 319.3C570 319.7 600 317.3 630 311.7C660 306 690 297 720 296.5C750 296 780 304 810 309.2C840 314.3 870 316.7 885 317.8L900 319L900 401L885 401C870 401 840 401 810 401C780 401 750 401 720 401C690 401 660 401 630 401C600 401 570 401 540 401C510 401 480 401 450 401C420 401 390 401 360 401C330 401 300 401 270 401C240 401 210 401 180 401C150 401 120 401 90 401C60 401 30 401 15 401L0 401Z" fill="#b6829c"></path><path d="M0 323L15 327.8C30 332.7 60 342.3 90 347.5C120 352.7 150 353.3 180 354C210 354.7 240 355.3 270 353.7C300 352 330 348 360 342C390 336 420 328 450 327.5C480 327 510 334 540 335.2C570 336.3 600 331.7 630 334.5C660 337.3 690 347.7 720 348.3C750 349 780 340 810 336.7C840 333.3 870 335.7 885 336.8L900 338L900 401L885 401C870 401 840 401 810 401C780 401 750 401 720 401C690 401 660 401 630 401C600 401 570 401 540 401C510 401 480 401 450 401C420 401 390 401 360 401C330 401 300 401 270 401C240 401 210 401 180 401C150 401 120 401 90 401C60 401 30 401 15 401L0 401Z" fill="#b87a7a"></path></svg>