<svg width="900" height="610" xmlns="http://www.w3.org/2000/svg" version="1.1">

 <g>
  <title>Layer 1</title>
  <path id="svg_1" fill="#b87a7a" d="m0,612c0,0 -8.797,-588.698 0.665,-605.098c14.881,16.445 42.221,2.485 75.863,-2.359c98.513,-14.183 51.735,16.316 132.551,31.414c80.816,15.098 108.219,-22.817 137.789,-28.016c29.57,-5.199 83.968,30.684 121.468,25.184c37.5,-5.5 84.168,14.492 121.668,43.092c37.5,28.7 63.817,-8.451 101.317,-14.451c37.5,-6 56.881,2.754 92.449,-7.97c35.568,-10.724 76.735,-9.331 126.75,-27.319c-98.807,47.624 -73.48,33.661 -10.52,1.614l0,583.909l-18.7,0c-18.6,0 -56,0 -93.5,0c-37.5,0 -75.1,0 -112.6,0c-37.5,0 -74.9,0 -112.4,0c-37.5,0 -75.1,0 -112.6,0c-37.5,0 -74.9,0 -112.4,0c-37.5,0 -75.1,0 -112.6,0c-37.5,0 -74.9,0 -112.4,0c-37.5,0 -75.1,0 -94,0l-18.8,0z"/>
  <path id="svg_2" fill="#b78096" d="m0,52l18.8,1.8c18.9,1.9 57.801,3.827 94,37.7c36.199,33.873 70.598,9.811 123.484,-6.471c52.886,-16.282 64.016,52.671 101.516,39.271c37.5,-13.3 74.9,13.7 112.4,42c37.5,28.4 75.1,58 112.6,48.9c37.5,-9.2 74.9,-57.2 112.4,-81.4c37.5,-24.1 75.1,-24.5 112.6,-11.6c37.5,12.8 74.9,38.8 93.5,51.8l18.7,13l0,425l-18.7,0c-18.6,0 -56,0 -93.5,0c-37.5,0 -75.1,0 -112.6,0c-37.5,0 -74.9,0 -112.4,0c-37.5,0 -75.1,0 -112.6,0c-37.5,0 -74.9,0 -112.4,0c-37.5,0 -75.1,0 -112.6,0c-37.5,0 -74.9,0 -112.4,0c-37.5,0 -75.1,0 -94,0l-18.8,0l0,-560z"/>
  <path id="svg_3" fill="#ab8aaf" d="m0,158l18.8,-9c18.9,-9 56.5,-27 94,-18.2c37.5,8.9 74.9,44.5 112.4,49.4c37.5,4.8 75.1,-21.2 112.6,-12.4c37.5,8.9 74.9,52.5 112.4,84.4c37.5,31.8 75.1,51.8 112.6,62.3c37.5,10.5 74.9,11.5 112.4,-6.2c37.5,-17.6 75.1,-54 112.6,-69.1c37.5,-15.2 74.9,-9.2 93.5,-6.2l18.7,3l0,376l-18.7,0c-18.6,0 -56,0 -93.5,0c-37.5,0 -75.1,0 -112.6,0c-37.5,0 -74.9,0 -112.4,0c-37.5,0 -75.1,0 -112.6,0c-37.5,0 -74.9,0 -112.4,0c-37.5,0 -75.1,0 -112.6,0c-37.5,0 -74.9,0 -112.4,0c-37.5,0 -75.1,0 -94,0l-18.8,0l0,-454z"/>
  <path id="svg_4" fill="#9797c0" d="m0,234l18.8,13.5c18.9,13.5 56.5,40.5 94,42.5c37.5,2 74.9,-21 112.4,-19.3c37.5,1.6 75.1,28 112.6,48.3c37.5,20.3 74.9,34.7 112.4,26.8c37.5,-7.8 75.1,-37.8 112.6,-45.3c37.5,-7.5 74.9,7.5 112.4,-0.7c37.5,-8.1 75.1,-39.5 112.6,-54.6c37.5,-15.2 74.9,-14.2 93.5,-13.7l18.7,0.5l0,380l-18.7,0c-18.6,0 -56,0 -93.5,0c-37.5,0 -75.1,0 -112.6,0c-37.5,0 -74.9,0 -112.4,0c-37.5,0 -75.1,0 -112.6,0c-37.5,0 -74.9,0 -112.4,0c-37.5,0 -75.1,0 -112.6,0c-37.5,0 -74.9,0 -112.4,0c-37.5,0 -75.1,0 -94,0l-18.8,0l0,-378z"/>
  <path id="svg_5" fill="#82a3c6" d="m0,438l18.8,-19.2c18.9,-19.1 56.5,-57.5 94,-60.6c37.5,-3.2 74.9,28.8 112.4,21c37.5,-7.9 75.1,-55.5 112.6,-57.7c37.5,-2.2 74.9,41.2 112.4,42c37.5,0.8 75.1,-40.8 112.6,-47.7c37.5,-6.8 74.9,21.2 112.4,19.7c37.5,-1.5 75.1,-32.5 112.6,-22.3c37.5,10.1 74.9,61.5 93.5,87.1l18.7,25.7l0,186l-18.7,0c-18.6,0 -56,0 -93.5,0c-37.5,0 -75.1,0 -112.6,0c-37.5,0 -74.9,0 -112.4,0c-37.5,0 -75.1,0 -112.6,0c-37.5,0 -74.9,0 -112.4,0c-37.5,0 -75.1,0 -112.6,0c-37.5,0 -74.9,0 -112.4,0c-37.5,0 -75.1,0 -94,0l-18.8,0l0,-174z"/>
  <path id="svg_6" fill="#76adc3" d="m0,495l18.8,-8.2c18.9,-8.1 56.5,-24.5 94,-25c37.5,-0.5 74.9,14.9 112.4,21.5c37.5,6.7 75.1,4.7 112.6,2.7c37.5,-2 74.9,-4 112.4,-20.3c37.5,-16.4 75.1,-47 112.6,-49.7c37.5,-2.7 74.9,22.7 112.4,42.3c37.5,19.7 75.1,33.7 112.6,33.9c37.5,0.1 74.9,-13.5 93.5,-20.4l18.7,-6.8l0,147l-18.7,0c-18.6,0 -56,0 -93.5,0c-37.5,0 -75.1,0 -112.6,0c-37.5,0 -74.9,0 -112.4,0c-37.5,0 -75.1,0 -112.6,0c-37.5,0 -74.9,0 -112.4,0c-37.5,0 -75.1,0 -112.6,0c-37.5,0 -74.9,0 -112.4,0c-37.5,0 -75.1,0 -94,0l-18.8,0l0,-117z"/>
  <path id="svg_7" fill="#7ab5b8" d="m0,460l18.8,16c18.9,16 56.5,48 94,50.5c37.5,2.5 74.9,-24.5 112.4,-32.7c37.5,-8.1 75.1,2.5 112.6,13.7c37.5,11.2 74.9,22.8 112.4,16c37.5,-6.8 75.1,-32.2 112.6,-39.5c37.5,-7.3 74.9,3.3 112.4,14.8c37.5,11.5 75.1,23.9 112.6,17.2c37.5,-6.7 74.9,-32.3 93.5,-45.2l18.7,-12.8l0,154l-18.7,0c-18.6,0 -56,0 -93.5,0c-37.5,0 -75.1,0 -112.6,0c-37.5,0 -74.9,0 -112.4,0c-37.5,0 -75.1,0 -112.6,0c-37.5,0 -74.9,0 -112.4,0c-37.5,0 -75.1,0 -112.6,0c-37.5,0 -74.9,0 -112.4,0c-37.5,0 -75.1,0 -94,0l-18.8,0l0,-152z"/>
 </g>
</svg>