<svg xmlns="http://www.w3.org/2000/svg" width="256" height="256" viewBox="0 0 100 100"><rect width="100" height="100" rx="20" fill="#7ab5b8"></rect><path d="M48.52 50L48.52 50Q48.52 56.08 46.80 60.73Q45.09 65.37 42.04 68.45Q39.00 71.53 34.87 73.13Q30.73 74.73 25.90 74.73L25.90 74.73Q21.06 74.73 16.93 73.13Q12.79 71.53 9.75 68.45Q6.71 65.37 4.99 60.73Q3.28 56.08 3.28 50L3.28 50Q3.28 43.92 5.03 39.31Q6.79 34.71 9.83 31.59Q12.87 28.47 17.01 26.87Q21.14 25.27 25.90 25.27L25.90 25.27Q30.66 25.27 34.79 26.87Q38.92 28.47 41.97 31.59Q45.01 34.71 46.76 39.31Q48.52 43.92 48.52 50ZM42.04 50L42.04 50Q42.04 40.64 37.64 35.65Q33.23 30.66 25.90 30.66L25.90 30.66Q22.23 30.66 19.27 31.94Q16.30 33.23 14.20 35.69Q12.09 38.14 10.96 41.73Q9.83 45.32 9.83 50L9.83 50Q9.83 59.36 14.20 64.35Q18.57 69.34 25.90 69.34L25.90 69.34Q33.31 69.34 37.68 64.35Q42.04 59.36 42.04 50ZM89.70 71.45L86.19 61.08L65.29 61.08Q64.74 62.64 64.12 64.47Q63.49 66.30 62.91 68.06Q62.32 69.81 61.78 71.33Q61.23 72.85 60.92 73.87L60.92 73.87Q59.83 74.34 58.35 74.34L58.35 74.34Q57.10 74.34 56.12 73.67Q55.15 73.01 55.15 71.53L55.15 71.53Q55.15 70.83 55.38 70.09Q55.62 69.34 55.93 68.49L55.93 68.49Q57.10 65.21 58.93 60.06Q60.76 54.91 62.91 49.10Q65.05 43.29 67.28 37.40Q69.50 31.51 71.37 26.83L71.37 26.83Q72.00 26.52 73.24 26.21Q74.49 25.90 75.82 25.90L75.82 25.90Q77.38 25.90 78.82 26.37Q80.26 26.83 80.65 27.93L80.65 27.93Q82.53 32.45 84.67 38.26Q86.82 44.07 89 50.16Q91.18 56.24 93.17 62.13Q95.16 68.02 96.72 72.78L96.72 72.78Q96.10 73.48 95.24 73.91Q94.38 74.34 93.29 74.34L93.29 74.34Q91.81 74.34 91.03 73.67Q90.25 73.01 89.70 71.45L89.70 71.45ZM76.05 31.20L75.74 31.20Q74.88 33.54 73.79 36.55Q72.70 39.55 71.53 42.82Q70.36 46.10 69.19 49.45Q68.02 52.81 67.00 55.85L67.00 55.85L84.55 55.85Q83.38 52.34 82.14 48.79Q80.89 45.24 79.76 41.97Q78.63 38.69 77.65 35.92Q76.68 33.15 76.05 31.20L76.05 31.20Z" fill="#fff"></path></svg>